<svg width="25" height="24" viewBox="0 0 25 24" fill="none" xmlns="http://www.w3.org/2000/svg">
<g id="social / instagram">
<g id="Group 469">
<path id="Union" fill-rule="evenodd" clip-rule="evenodd" d="M16.25 2H8.75C5.29875 2 2.5 4.79875 2.5 8.25V15.75C2.5 19.2013 5.29875 22 8.75 22H16.25C19.7013 22 22.5 19.2013 22.5 15.75V8.25C22.5 4.79875 19.7013 2 16.25 2ZM20.625 15.75C20.625 18.1625 18.6625 20.125 16.25 20.125H8.75C6.3375 20.125 4.375 18.1625 4.375 15.75V8.25C4.375 5.8375 6.3375 3.875 8.75 3.875H16.25C18.6625 3.875 20.625 5.8375 20.625 8.25V15.75ZM12.5002 7.2002C9.8494 7.2002 7.7002 9.3494 7.7002 12.0002C7.7002 14.651 9.8494 16.8002 12.5002 16.8002C15.151 16.8002 17.3002 14.651 17.3002 12.0002C17.3002 9.3494 15.151 7.2002 12.5002 7.2002ZM12.5002 15.0002C10.8466 15.0002 9.5002 13.6538 9.5002 12.0002C9.5002 10.3454 10.8466 9.0002 12.5002 9.0002C14.1538 9.0002 15.5002 10.3454 15.5002 12.0002C15.5002 13.6538 14.1538 15.0002 12.5002 15.0002ZM18.4998 6.6C18.4998 6.93137 18.2312 7.2 17.8998 7.2C17.5684 7.2 17.2998 6.93137 17.2998 6.6C17.2998 6.26863 17.5684 6 17.8998 6C18.2312 6 18.4998 6.26863 18.4998 6.6Z" fill="url(#paint0_linear_11275_38421)"/>
</g>
</g>
<defs>
<linearGradient id="paint0_linear_11275_38421" x1="5.42912" y1="19.0709" x2="19.5709" y2="4.92912" gradientUnits="userSpaceOnUse">
<stop stop-color="#FFC107"/>
<stop offset="0.507" stop-color="#F44336"/>
<stop offset="0.99" stop-color="#9C27B0"/>
</linearGradient>
</defs>
</svg>
